<svg id="Calque_1" data-name="Calque 1" xmlns="http://www.w3.org/2000/svg" viewBox="0 0 673.28 410.54"><defs><style>.cls-1{fill:none;}.cls-2{fill:#78c17a;}.cls-3{fill:#292627;}.cls-4{fill:#ded7ca;}</style></defs><path class="cls-1" d="M0,73.9C0,259.82,150.72,410.54,336.64,410.54S673.28,259.82,673.28,73.9A337.57,337.57,0,0,0,665.12,0H8.16A337.57,337.57,0,0,0,0,73.9Z"/><path class="cls-2" d="M144.93,221.85c-18.62,8.11-40.74,13.81-62.56,6.33C46,215.72,27.31,184.6,20.3,152a73.24,73.24,0,0,1-.89-22.52c9.28,8.09,18.65,8.24,30.07,13.14,17.86,7.66,36.46,13,54,21.43,12.17,5.81,23.43,13.05,36.35,17.24,6.84,2.22,15.49,5.17,22.35,4.06,12.06-2,22.8-5.07,33.09-10.46,3.1-1.63,8.11-5,12.24-4.15C199.16,192.3,153.64,218.05,144.93,221.85Z"/><path class="cls-3" d="M202.87,62c-17.05-4.53-35.53,1.23-49.8,8.56-18.91,9.72-33.42,26.8-43.61,45.68-.58,1.08-1.15,2.17-1.7,3.27a59.58,59.58,0,0,1,9.89,4.52,63.37,63.37,0,0,1,7,4.35c6.89-13.45,16.21-25.25,27.79-34a81,81,0,0,1,44-16c18.56-1,17.44,20.33,1.9,25.16-4,1.23-8.68,1.37-11.35,4.56-7.59,9.06,7.8,14,14.21,13,9.54-1.54,15.55-7.43,20.22-15.35.15-.25.3-.5.43-.74C230.9,87.73,223.38,67.49,202.87,62Z"/><path class="cls-3" d="M206,170.24a6.85,6.85,0,0,0-.7-.11,12.26,12.26,0,0,0-5,1c-27.44,8.48-50.65-20.31-72.09-32.08-11.48-6.31-23.66-10.77-35.88-15.56-8.29-3.25-17.61-5.77-25-10.8a37.22,37.22,0,0,1-8.06-9.44,74.9,74.9,0,0,1-4.55-10.7c-1-2.78-4.07-11.06-2.39-13.88-13.73,23-16.12,55.73-9.25,81.41a86.56,86.56,0,0,0,12.46,27.09c7,11.92,17,21.87,29.58,25.77a68.85,68.85,0,0,0,10.69,2.37c12.51,2.9,26.09,2.1,39.62-2.61l.54-.2c2.14-.55,4.26-1.14,6.35-1.8,12.27-3.86,24.31-9.75,36-16.28,6.3-3.53,12.82-6.68,18.8-10.76C199.42,182,212.79,171.76,206,170.24Zm-50.22,4,4.33,2.59c-3.62.88-7.25,1.69-10.86,2.36a77.81,77.81,0,0,1-51.49-8.29c-14.28-7.8-25-20.67-32.66-36.05-2.21-4.45-4.3-9-6.13-13.74,5.86,4.62,12.72,7.93,19.6,11.25C92.38,139,107.11,143.7,120.61,151,133,157.75,143.66,167,155.76,174.2ZM153.19,195c-17.94,7.65-37.5,10.93-55.18,8.39-18.4-2.64-31.1-16.73-38.19-34.26a110.6,110.6,0,0,1-7.66-32.83,53,53,0,0,1,.1-7.67c1.48,3.18,2.88,6,3.82,8C63.64,153,73.92,166.9,88.16,176.2A83.36,83.36,0,0,0,138,189.61c10.8-.65,21.71-3.67,32.47-6.71l1.15-.35c.5.18,1,.38,1.5.54-4.91,3.28-9.82,6.57-14.79,9.65C156.6,193.53,154.9,194.3,153.19,195Z"/><path class="cls-3" d="M298.48,257.06c-6.88-3.78-21.65,5-28.1,7.3-32.68,11.58-70.76,18.21-104.57,7.56-18.32-5.76-35.06-16-44.71-34.26a77.48,77.48,0,0,1-3.66-8l-.66.09c-5.87.76-11.83,1.51-17.71,1.16,1,2.81,2.1,5.58,3.33,8.32,22,49,83.58,59.1,131.21,48.81,13.09-2.83,25.17-4.07,37.94-9C276.66,277,312.44,264.73,298.48,257.06Z"/><path class="cls-3" d="M612.2,145.12a5.19,5.19,0,0,0-7.21,1.74c-5.23,9.45-20.89,34.07-34.57,35.07-6.72.74-11.19-4.73-11.69-5.22-3.23-3.73-6.22-7-9.2-10.7-2.24-3-4.23-5.72-6.47-8.7,3.73-4,7.22-7.46,10.45-11.19,8-8.21,16.16-16.42,23.62-24.87,10.45-12.44,19.65-25.37,25.62-40.29,2.24-6.47,4.23-13.18,4.48-19.89.49-14.18-9.7-23.13-23.88-21.64-7.46.75-13.43,4.48-18.65,9.45a97.9,97.9,0,0,0-15.92,20.39c-14.6,25-21.91,52-26,79.88-6,15.08-16.13,31.33-29.47,38.75-13.43,7.95-29.1-2.49-31.33-16.67a7,7,0,0,1,2.23-6c8.21,3.23,16.17,1.49,23.63-2.74,11.19-6.22,17.91-15.92,21.88-27.85,5.23-15.42-7-29.6-23.37-26.86a30.09,30.09,0,0,0-15.42,7C453.79,128,444.84,145.12,445.58,167a8,8,0,0,1-2.24,7.21,95.18,95.18,0,0,1-20.14,21.14,71.4,71.4,0,0,1-16.41,9.7,17.58,17.58,0,0,1-9.7,2c-8.95-.5-15.17-7.22-17.41-17.66a7.89,7.89,0,0,1,2.24-.75c9.95-1.49,17.9-6.21,24.87-13.43a110.27,110.27,0,0,0,20.14-25.36,38.51,38.51,0,0,0,6-15.92c2-12.43-4.73-23.13-17.16-26.11a34,34,0,0,0-12.19-1.24c-19.89,2-35.56,16.41-40,36.55-.45,1.89-.82,3.77-1.15,5.66-22.54,48.34-42.56,71.73-46.73,71.73h0c-2.38-2.08-3.23-12.66-.18-28.68.15-.68,3.74-16.71,4.24-19.49.15-1.15.3-2.29.46-3.42a78.41,78.41,0,0,0,1-14.16c-.25-5-2.32-9-5.82-11.23s-8.29-2.53-13.2-.59l-.1.05a78.49,78.49,0,0,0-11.35,7.31c-18.28,14.58-31.51,32-39.31,51.79-.12.18-.26.36-.41.56l-.27.34a270.54,270.54,0,0,1-5.38-39,4.82,4.82,0,0,1,2.56-4.65,221.7,221.7,0,0,0,55.47-56.73A95.8,95.8,0,0,0,312.17,85c3.26-9.53,1.7-18.38-4.63-26.29-9.09-11.87-28.91-18.47-45.09-8.45A51.36,51.36,0,0,0,244,69.21c-5.76,8.51-8.68,18.33-10.58,25.92a198.91,198.91,0,0,0-5.25,32.33c0,.05,0,.28,0,.67-.19,9.16-.56,31.89.27,44.91l0,.15c.24,1.09.43,2.33.61,3.54s.36,2.44.61,3.57a12.26,12.26,0,0,0,.76,4.09c2,15.67,6.12,31.76,13,50.58,1.49,4.47,4.71,6.31,7.73,6.31a7.79,7.79,0,0,0,1.68-.19c4.13-1.1,6-4.36,5.71-10V231a14.21,14.21,0,0,1,.24-7c4.72-19.43,12.36-34.66,23.38-46.56,4.34-4.68,9.25-9.07,14-13.32,2-1.8,4.1-3.66,6.13-5.55l.42-.43c1-1,2.81-2.86,4-2.84a.94.94,0,0,1,.72.4c.8,2.22-2.16,22-5.38,39.54v.18a10.31,10.31,0,0,1-.26,1.88,11,11,0,0,0-.24,1.77c-2.26,16.65,0,27.19,6.88,32.23a12,12,0,0,0,6.8,2.17,6.55,6.55,0,0,0,3.38-.56c13.31-3.35,30.38-30.52,42.91-54,.08.93.18,1.87.28,2.81,1,7.46,2.49,14.42,6.22,21.14,8.21,16.41,26.11,23.62,43.27,16.91a84.74,84.74,0,0,0,13.93-8c8.46-5.47,15.67-12.68,21.88-20.39,1.25-1.49,2.24-3,3.74-4.48,1.24,1.74,2,3.23,3,4.48,23.34,26.39,50.48,12.38,66.16-8.58-.41,15.78.31,31.52,1.48,47.37a103.4,103.4,0,0,0,6,27.11,49.87,49.87,0,0,0,11.68,17.66c7.47,6.21,16.67,6,23.38-1.49,2.24-2.24,3.73-5,5.72-7.47,4.48-8.2,6.72-16.91,8.21-26.11,1.74-12.68-.5-25.12-4.23-37.3a2.24,2.24,0,0,1-.25-1.24c-1.24-3-2.24-6-3.48-8.46h3.48c9.2-1.49,19.4-8.7,30.09-22.13,7.21-9.2,12.44-18.16,12.44-18.65C615.93,149.6,614.69,146.61,612.2,145.12ZM489.6,122c5.22-1.24,9.45,3,8,8.21-3.48,10-9.45,17.91-19.9,21.89-5.22,2-9.7,1.24-13.43-4C469.21,136.92,478.16,123.49,489.6,122ZM290.79,65.39c1.3.83,4,3.68,4.92,8.52,1,5,.17,13.67-9,26.18-13.47,22.53-35.5,37.49-41.42,41.25V140c1.3-20,2.84-36.66,9.62-53.12,4.13-9.37,9.17-16.13,15.82-21.23a17,17,0,0,1,20-.22Zm88.39,76.25c3.73-11.44,12.44-18.65,24.37-20.39A19.69,19.69,0,0,1,412,122c4.48,1,6.71,4.48,6.47,9.21a40.26,40.26,0,0,1-3,9.69,102,102,0,0,1-19.89,26.86c-6,5.72-11.44,8.71-18.66,10.2C375.45,165.27,375.45,153.33,379.18,141.64Zm162.39-3.73C546.55,117,552,96.13,563,77.23a73.43,73.43,0,0,1,9.7-14.92,57.54,57.54,0,0,1,7.71-8,10.62,10.62,0,0,1,8.7-1.74c3.73.25,5.47,2.24,6,6,0,2.49,0,5.47-1.24,8.21a143.56,143.56,0,0,1-7.71,19.39c-5.72,11.19-13.43,21.14-21.64,30.59-6.71,7.46-13.93,14.18-20.64,21.64-.25.25-1,.74-2.24,1.74Zm24.37,97A47.34,47.34,0,0,1,561.72,255,46.47,46.47,0,0,1,555,266c-2.24,3-5.47,3.24-7.71,0-2.73-3.73-5.72-8-7.21-12.43a75.54,75.54,0,0,1-4-22.38c-.75-18.16-.5-36.56,0-54.46a25.61,25.61,0,0,1,.25-4c1.24,1.74,2,2.48,2.24,3.73,3.73,6.21,8.95,11.19,14.92,15.66,1.49,1,3.48,2.49,4.23,4C563.21,208.54,566.69,221.22,565.94,234.9Z"/><path class="cls-3" d="M337.81,256.78c0-2.38-1.74-4-5.63-4h-4.83v15.09h4.83c3.44,0,6-1.59,6-4.27,0-1.61-1-2.84-3.05-3.44A3.49,3.49,0,0,0,337.81,256.78Zm-7.8-1.55h2.3c2,0,2.73.84,2.73,1.87s-1,2.26-3.12,2.23H330Zm5.33,8.1c0,1.11-.77,2.1-3,2.1H330v-4.18h1.66C334.48,261.25,335.34,262.3,335.34,263.33Z"/><rect class="cls-3" x="343.63" y="252.79" width="2.66" height="15.09"/><polygon class="cls-3" points="362.37 255.23 362.37 252.79 352.56 252.79 352.56 267.88 362.37 267.88 362.37 265.43 355.23 265.43 355.23 261.82 361.71 261.82 361.71 259.46 355.23 259.46 355.23 255.23 362.37 255.23"/><polygon class="cls-3" points="380.88 267.99 380.88 252.79 378.22 252.79 378.22 262.43 368.88 252.7 368.05 252.7 368.05 267.88 370.71 267.88 370.71 258.52 380.18 267.99 380.88 267.99"/><polygon class="cls-3" points="409.96 252.72 403.84 263.71 397.57 252.72 396.39 252.72 395.96 267.88 398.56 267.88 398.6 259.36 403.3 268.01 404.23 268.01 408.88 259.21 408.95 267.88 411.57 267.88 411.14 252.72 409.96 252.72"/><path class="cls-3" d="M426.34,264.87l1.33,3h2.86l-7.09-15.22h-.6l-7.08,15.22h2.79l1.31-3Zm-3.24-7.32,2.3,5.2h-4.6Z"/><polygon class="cls-3" points="445.11 262.43 435.77 252.7 434.94 252.7 434.94 267.88 437.6 267.88 437.6 258.52 447.06 267.99 447.77 267.99 447.77 252.79 445.11 252.79 445.11 262.43"/><path class="cls-3" d="M460.62,262.34h4.2V265a10.14,10.14,0,0,1-3.43.61,5.22,5.22,0,0,1-5.46-5.27c0-3.09,2.17-5.32,5.72-5.32a10.1,10.1,0,0,1,4,1l.92-2.28a10.71,10.71,0,0,0-5.32-1.22,8,8,0,0,0-8.14,7.79c0,4.47,3.39,7.82,8.5,7.82a10.26,10.26,0,0,0,5.84-1.72V260h-6.78Z"/><polygon class="cls-3" points="472.86 267.88 482.67 267.88 482.67 265.43 475.52 265.43 475.52 261.82 482 261.82 482 259.46 475.52 259.46 475.52 255.23 482.67 255.23 482.67 252.79 472.86 252.79 472.86 267.88"/><path class="cls-3" d="M499.2,258.15c0-3.15-2-5.36-6-5.36h-4.83v15.09H491V263.5h1.66q.7,0,1.35-.06l3.2,4.44h3.11l-3.86-5.11A4.72,4.72,0,0,0,499.2,258.15Zm-6.22,3h-2v-5.91h2c2.51,0,3.35,1.27,3.35,2.92S495.47,261.14,493,261.14Z"/><path class="cls-3" d="M506.14,265a1.61,1.61,0,0,0,0,3.22.44.44,0,0,0,.15,0v0a4,4,0,0,1-1.44,2l.62.73c1.7-1.22,2.41-2.49,2.41-3.84C507.88,265.93,507.36,265,506.14,265Z"/><polygon class="cls-3" points="332.91 288.94 328.3 278.63 325.44 278.63 332.44 293.92 333.34 293.92 340.34 278.63 337.55 278.63 332.91 288.94"/><rect class="cls-3" x="345.82" y="278.63" width="2.66" height="15.09"/><polygon class="cls-3" points="361.43 288.94 356.81 278.63 353.96 278.63 360.96 293.92 361.86 293.92 368.86 278.63 366.07 278.63 361.43 288.94"/><path class="cls-3" d="M385.2,284c0-3.16-2-5.37-6-5.37h-4.83v15.1H377v-4.38h1.65c.47,0,.93,0,1.35-.07l3.2,4.45h3.12l-3.87-5.11A4.73,4.73,0,0,0,385.2,284ZM379,287h-2v-5.91h2c2.52,0,3.35,1.27,3.35,2.92S381.46,287,379,287Z"/><polygon class="cls-3" points="392.18 293.73 401.99 293.73 401.99 291.28 394.84 291.28 394.84 287.67 401.33 287.67 401.33 285.31 394.84 285.31 394.84 281.08 401.99 281.08 401.99 278.63 392.18 278.63 392.18 293.73"/><polygon class="cls-3" points="432.7 278.57 426.58 289.56 420.31 278.57 419.13 278.57 418.7 293.73 421.3 293.73 421.34 285.2 426.04 293.86 426.97 293.86 431.62 285.05 431.69 293.73 434.31 293.73 433.88 278.57 432.7 278.57"/><rect class="cls-3" x="441.48" y="278.63" width="2.66" height="15.09"/><polygon class="cls-3" points="451.53 293.73 461.35 293.73 461.35 291.28 454.19 291.28 454.19 287.67 460.68 287.67 460.68 285.31 454.19 285.31 454.19 281.08 461.35 281.08 461.35 278.63 451.53 278.63 451.53 293.73"/><path class="cls-3" d="M477.88,287.46c0,2.9-1.4,4.1-3.67,4.1s-3.59-1.2-3.59-4.08v-8.85H468v8.85c0,4.51,2.47,6.53,6.25,6.53s6.33-2,6.33-6.53v-8.85h-2.66Z"/><polygon class="cls-3" points="500.3 278.63 497.2 278.63 493.19 284.43 489.28 278.63 486.08 278.63 491.54 286.51 486.06 293.73 489.22 293.73 493.15 288.38 497.1 293.73 500.32 293.73 494.82 286.3 500.3 278.63"/><path class="cls-4" d="M263.83,350.4l1.24.43a106.51,106.51,0,0,1-12.38-4.26c7.82,5.14,18.58,10.19,27.62,7-.18,2.81,8.9,5.82,9.27,5.25,2.08-.06,4.18-.16,6.26-.14-1.43,0-2.85-.06-4.28,0,1.43,0,2.85,0,4.28,0,13.09.11,26.53,2.51,41,4,2,.18,4.87.38,8.18.6l10.85.32,10.9-.05c3.35-.11,6.29-.18,8.39-.17,1.22,0,2.43,0,3.64-.1-2,0-2.05,0-4.09-.07,2.43-.54,4.69-1.22,6.88-1.81l6.37-1.67a12.31,12.31,0,0,0-3.06-.9c.75,0,1.51,0,2.26,0,1.62-1.41,6.13-2.09,8.08-2.89-.25.64,1.47.5,3,.27l-.72-.26c2.8-.43,5.76-1.09,8.63-1.75s5.56-1.53,8-2.09a3.34,3.34,0,0,1,1.69,0l4.33-1.72c.06.83,4.16-.45,2.24.63,2.95-1.77,6.62-2.47,9.24-4.37,11.2-4,22.28-9.53,31.15-16.38l-.5-.09a34.55,34.55,0,0,0,4-3.95,22.27,22.27,0,0,1,4.95-3.82c.86-1.37,2.12-2.83,3.07-4.2s1.44-2.73,1.1-3.69c2.67-2.45,2.74-4,4.8-6.67-1.51.13,1.36-2.95-.55-2.12-2.86.87-1.91,1.54-4.26,2.28l.33.14a217.56,217.56,0,0,1-24.65,14.44c-5,3.76-12,6.27-18.32,9.1-3.46,1.47-7,3.12-10.57,4.5s-7,2.8-10.11,4c-1.42.68-2.89.35-4.42.3a101.4,101.4,0,0,1-10,2.53l-5.42,1.18c-1.82.36-3.63.7-5.37,1.1l.36,0a31,31,0,0,1-5.27.54,35.3,35.3,0,0,0-5.23.36c.08.22-.49.31-.74.46-.23-.26-1.66,0-3.75.31s-4.81.86-7.57,1.4c-5.54.92-11.28,1.89-12,1.52-.39.06-.8.11-1.22.14-2-.1-4.1-.29-6.14-.53s-4.07-.64-6-.95-3.91-.59-5.78-.89a43.44,43.44,0,0,0-5.38-.55c-1.52.39-3.25.77-4.56,1.18-1.18-.57-1.51.29-3,0-3.49-2.48-5.76-1.8-3.95-.87-3.12,0-6.16-.67-8.9-.92-1.29,0-2.59,0-3.89,0a2.31,2.31,0,0,1-2.08-1c-2.82-.16-1.88-.54-4.7-1.22-.5-.76-7.48-.26-8.25-.62h.5c-3.29-.76-5-2.68-8.08-3.49-4.33-1.22-8.79-2.56-13.26-3.72-4.36-1.36-8.75-2.54-12.49-4.09-.49.68,1.79.45,1.34,1.42-2.25-.88-4.4-1.93-6.52-3s-4.14-2.27-6.32-3.21a6.46,6.46,0,0,1-1.6-1.62c-1.18-.87-1,0-2-.58l.33-.67c-1.85-.16-1.63-1.62-3.19-2-.27.21-.79,0-1.27-.22.48-.62-1.52-.65-1-1.2l-.05,0a2.29,2.29,0,0,1-.76-.49c-.69-.05-7.29-.91-8.1-1l-.16-.24c-.75-.4-1.49-.13-1.16.22l-.88-.55.14,0-.87-.55c-.12-.14,0-.52.47-.64a3.15,3.15,0,0,1-1.81-.69,36.11,36.11,0,0,1,3.3,4.14c-.84-.13-1.65-1.09-2.39-1.4a16,16,0,0,0-2.75-3.09c-.31-.12-1.18.42-1.52-.22.15-.62-.71-.42-.88-1.05a4.84,4.84,0,0,1,1.88.95c.43-.57-1.1-1.21-1.39-1.66-.39,0-1.33-.85-2.2-1.16.86-.29-.22-.67-.34-1.19-.4-.36-.93-.36-.94-.06-.76.43,1.54,1.51.24,1.65.12-.37-.92-.87-1.46-1.17-.34.28.1.44-.55.51-.5-.42-1.51-.46-1.48-1,.2,0,.37.19.53.3-.68-.48,6.14.61,5,.18,0,.42-6.12-.9-5.67-.59.28.43-.94.31-.59.7h.93a.7.7,0,0,1-.27,1.23c-1-.71,5.32-.06,4.06-.35l.21.37c-.6-.05-1.82-.53-1.86-1.09-.33.29-1,.06-1.52-.11l-.1-.15c-.62-.13-1.17-.59-1.32,0,2.72,1.63-5.17,1.74-2.75,3.55-.37-1.32,1.12-.4,2.36.25-.13.28,0,.92.67,1.61.78.41.69,0,1,0,.24.4.87,1,.4,1.28,1-.05.63.83,1.46,1.12s.15-.2.8-.15c.89.57,2.14,1.36,2.81,1.86,0,.49.27,1.58-.88,1.72-1.37-.87,1.37-.52-.23-1.25-.11,1.11-1.53-.54-2.38-.13.13.61,1.1,1.16,2,1.52l-.06-.19c.81.3,2.4.95,2.78,1.79-.44.17-.29.56-.88.33l.95.61c.2,0,.41,0,.19-.25a1.63,1.63,0,0,1,1.25.76c-.13.36,6.55,1.53,6.21,1.62.74.36.55.89,1.52.95.29-.19-7.92-2.54-6.88-2.15.38.65,9.62,2.76,9.68,3.43.58.23,1.31.47,1.42.11.83.57-.74.45-.29,1,.05,0,.06-.17.27-.07l.35.68c1.86.17,3.53,1.84,5.61,1.8a7.65,7.65,0,0,1-2.9.4l-.05-.24c-.21,0-1.12-.24-1.33.08a4.91,4.91,0,0,0,2.93,1.06,5,5,0,0,1,.38.48s0-.08.07-.13c.2.33.14.35-.07.42l-.12,0c0,1.17,4.28,1,5.75,2.16.62.09.16-.13.93-.05a35.45,35.45,0,0,0,4.59,2.74c.87-.18,1-.33.52-1l1.4.66c-2,.6,2.18,2,.05,2.58a3.38,3.38,0,0,0,2.11.9c.24-.24.63-.64,1.7-.3,1.3.83,1,.59,2.07,1.33.1.46-.43.46-.53.76,2.17.14,1.27,1.32,3.14,1.83,1.2.26,3.49.91,3.86.26C264.45,349.45,264.23,349.92,263.83,350.4Z"/></svg>
