<svg width="122" height="43" viewBox="0 0 122 43" fill="none" xmlns="http://www.w3.org/2000/svg">
<path d="M40.996 10.1579C40.665 10.1387 40.3397 10.2507 40.0907 10.4697C39.8417 10.6887 39.6891 10.9971 39.666 11.3279C39.7059 11.6525 39.8632 11.9514 40.1081 12.1681C40.3531 12.3848 40.6689 12.5045 40.996 12.5045C41.3231 12.5045 41.6389 12.3848 41.8839 12.1681C42.1289 11.9514 42.2861 11.6525 42.326 11.3279C42.3029 10.9971 42.1503 10.6887 41.9013 10.4697C41.6523 10.2507 41.3271 10.1387 40.996 10.1579Z" fill="black"/>
<path d="M100.756 30.1082C101.007 30.0566 101.254 29.9898 101.496 29.9082H101.556H101.616L101.866 30.0082H102.156C102.392 30.0449 102.633 30.0019 102.841 29.886C103.049 29.77 103.213 29.5878 103.306 29.3682L105.426 22.2982L105.536 22.0882C106.1 20.9575 106.77 19.8827 107.536 18.8782C108.956 16.9882 110.406 15.9282 111.536 15.9282H111.666C111.769 15.9275 111.87 15.9475 111.965 15.9871C112.059 16.0266 112.145 16.0848 112.216 16.1582C112.756 16.7882 112.956 18.9482 111.776 22.1582C111.676 22.4882 111.566 22.8582 111.496 23.1582C110.496 26.6282 111.556 29.6082 114.026 30.5982C114.449 30.7673 114.893 30.8751 115.346 30.9182C116.763 30.9666 118.16 30.5754 119.346 29.7982C120.043 29.3571 120.664 28.8067 121.186 28.1682C121.388 27.9328 121.557 27.6703 121.686 27.3882C121.742 27.2524 121.767 27.1059 121.76 26.9592C121.753 26.8124 121.714 26.6691 121.645 26.5392C121.577 26.4094 121.48 26.2963 121.363 26.208C121.245 26.1196 121.11 26.0583 120.966 26.0282C120.69 25.9258 120.387 25.9216 120.109 26.0163C119.83 26.111 119.592 26.2989 119.436 26.5482C119.366 26.6382 119.326 26.6782 119.126 26.9482C118.763 27.4121 118.328 27.814 117.836 28.1382C117.431 28.4175 116.966 28.5998 116.479 28.6709C115.992 28.742 115.495 28.7 115.026 28.5482C114.026 28.1782 113.206 26.4482 113.896 23.7882L114.176 22.8482C114.766 21.2082 115.946 17.1982 114.256 15.1282C113.915 14.7685 113.504 14.4826 113.048 14.2883C112.593 14.0939 112.102 13.9952 111.606 13.9982C110.178 13.9319 108.775 14.3948 107.666 15.2982L107.476 15.4482L107.416 15.2182C107.351 15.0103 107.231 14.8237 107.069 14.6778C106.908 14.5318 106.71 14.4318 106.496 14.3882C106.364 14.3336 106.222 14.3078 106.079 14.3127C105.937 14.3175 105.797 14.3529 105.669 14.4163C105.541 14.4798 105.428 14.5699 105.338 14.6807C105.248 14.7914 105.182 14.9201 105.146 15.0582L101.486 27.4382C100.534 27.9865 99.4904 28.3591 98.4061 28.5382C97.0861 28.7982 95.3461 29.3582 93.4061 28.3582C92.3574 27.869 91.5072 27.0364 90.9961 25.9982L90.8961 25.7982H91.2061C92.5852 25.547 93.8886 24.9839 95.0169 24.152C96.1452 23.3201 97.0684 22.2414 97.7161 20.9982C98.5261 19.5382 99.3861 16.5782 97.4461 14.7382C96.5261 13.8882 94.5561 12.8082 91.6461 15.0482C89.2761 16.9182 87.9261 21.0482 88.4861 24.5882V24.6482V24.6982C86.7261 27.6082 84.0861 28.6982 82.9461 28.2882C80.9461 27.6182 81.5161 24.7082 82.4261 20.9882C83.0861 18.3082 83.7061 15.7782 82.4261 14.3882C81.7602 13.8132 80.9058 13.5035 80.0261 13.5182C78.5184 13.5113 77.0563 14.0352 75.8961 14.9982L75.5161 15.2882L77.9961 6.88824C78.0322 6.76976 78.0419 6.64482 78.0246 6.52218C78.0074 6.39954 77.9635 6.28215 77.8961 6.17824C77.8062 6.03765 77.6876 5.91772 77.548 5.82636C77.4083 5.735 77.2509 5.67429 77.0861 5.64824C76.775 5.56952 76.4463 5.60008 76.155 5.73479C75.8637 5.86951 75.6276 6.1002 75.4861 6.38824L70.1661 23.4682C69.5904 24.8356 68.5869 25.9794 67.3061 26.7282C66.0422 27.7187 64.4915 28.273 62.8861 28.3082C60.9961 28.3082 59.7861 27.5382 59.2961 26.0282C58.9913 25.2464 58.8881 24.4004 58.9961 23.5682C59.0059 22.6479 59.168 21.7355 59.4761 20.8682C60.2961 18.4482 62.1161 15.9982 64.3261 15.9982C64.8011 16.0324 65.2624 16.1725 65.6761 16.4082C65.9015 16.5142 66.0872 16.6894 66.2061 16.9082C66.3503 17.1083 66.421 17.3521 66.4061 17.5982C66.3065 18.6545 65.8879 19.6554 65.2061 20.4682C65.1157 20.5864 65.0512 20.7222 65.0167 20.867C64.9822 21.0117 64.9786 21.162 65.0061 21.3082C65.0515 21.458 65.1285 21.5963 65.232 21.7136C65.3356 21.8309 65.4632 21.9246 65.6061 21.9882C65.7221 22.0878 65.8593 22.1594 66.0073 22.1977C66.1552 22.2359 66.31 22.2397 66.4597 22.2088C66.6094 22.1779 66.75 22.1131 66.8707 22.0194C66.9914 21.9257 67.0891 21.8056 67.1561 21.6682C68.0296 20.477 68.5463 19.062 68.6461 17.5882C68.6421 16.9064 68.4593 16.2375 68.1161 15.6482C67.8075 15.2182 67.4289 14.843 66.9961 14.5382C66.2107 14.0831 65.3236 13.8321 64.4161 13.8082C63.6018 13.8195 62.7991 14.0036 62.0612 14.3484C61.3234 14.6932 60.6672 15.1908 60.1361 15.8082C58.9471 17.0691 58.0283 18.5596 57.4361 20.1882C57.3461 20.4482 57.2661 20.6982 57.1961 20.9482L57.0561 21.3982C57.0561 21.5782 56.9961 21.6082 56.9561 21.7782C56.8816 22.0401 56.7915 22.2972 56.6861 22.5482C56.6061 22.7182 56.5161 22.9382 56.3661 23.2982C54.9461 26.4882 51.8461 28.5182 50.5661 28.1682C49.5061 27.8582 48.7061 26.0382 49.3161 23.2682L51.1061 15.9482L53.7061 15.8882C53.8913 15.8938 54.0757 15.8611 54.2477 15.7923C54.4198 15.7235 54.5758 15.62 54.7061 15.4882C54.7864 15.4089 54.8492 15.3137 54.8906 15.2086C54.9319 15.1036 54.9508 14.991 54.9461 14.8782C54.8901 14.5866 54.7261 14.3269 54.487 14.1508C54.2479 13.9747 53.9512 13.8952 53.6561 13.9282H51.6561L52.6561 9.92824C52.6799 9.81293 52.6797 9.69396 52.6556 9.57871C52.6316 9.46346 52.5841 9.35439 52.5161 9.25824C52.4153 9.11803 52.2871 8.99967 52.1393 8.91031C51.9915 8.82094 51.8271 8.76241 51.6561 8.73824C51.3295 8.63648 50.9765 8.66247 50.6684 8.81097C50.3603 8.95947 50.12 9.2194 49.9961 9.53824L48.9961 13.9982H45.7461C45.3698 14.0073 45.0116 14.1614 44.7461 14.4282C44.6669 14.5042 44.6045 14.596 44.5631 14.6976C44.5218 14.7993 44.5024 14.9085 44.5061 15.0182C44.5667 15.3228 44.7385 15.594 44.9881 15.7789C45.2376 15.9637 45.5471 16.0491 45.8561 16.0182L48.3961 15.9982L47.0161 21.9982C46.981 22.0762 46.951 22.1564 46.9261 22.2382C46.7845 22.7977 46.6108 23.3486 46.4061 23.8882C45.8071 25.4836 44.8044 26.8963 43.4961 27.9882C43.1631 28.3217 42.7619 28.5793 42.32 28.7432C41.8782 28.9072 41.4061 28.9737 40.9361 28.9382C39.8561 28.6482 39.0161 26.8382 39.5761 24.0582L41.2461 16.7882L41.5061 15.5482C41.531 15.4324 41.5305 15.3125 41.5046 15.1968C41.4787 15.0811 41.4281 14.9724 41.3561 14.8782C41.2524 14.7396 41.122 14.623 40.9726 14.5354C40.8232 14.4479 40.6578 14.391 40.4861 14.3682C40.173 14.3045 39.8473 14.3566 39.5696 14.5147C39.2919 14.6729 39.0811 14.9264 38.9761 15.2282L38.7061 16.4682L37.0861 23.6882C36.3261 27.2382 37.5761 30.1582 40.0861 30.8082C40.5307 30.954 40.9994 31.0118 41.4661 30.9782C42.875 30.8632 44.2117 30.3068 45.2861 29.3882C45.8462 28.9417 46.3559 28.4354 46.8061 27.8782L46.9661 27.6982L47.0761 27.9182C47.3228 28.4441 47.6787 28.9114 48.1202 29.2891C48.5616 29.6667 49.0784 29.9459 49.6361 30.1082C50.0811 30.216 50.5385 30.2631 50.9961 30.2482C52.155 30.1316 53.2745 29.7634 54.2763 29.1692C55.2781 28.575 56.1381 27.7693 56.7961 26.8082L56.9761 26.5882L57.0761 26.8582C57.9761 29.3082 59.9061 30.5582 62.8261 30.5582C64.75 30.5289 66.622 29.9304 68.2061 28.8382L68.5261 28.6282L68.4461 28.9982C68.4256 29.105 68.4265 29.2149 68.4488 29.3213C68.4711 29.4277 68.5144 29.5287 68.5761 29.6182C68.6673 29.7496 68.7845 29.8608 68.9204 29.9451C69.0562 30.0293 69.2079 30.0849 69.3661 30.1082C69.4645 30.1475 69.5704 30.1646 69.6761 30.1582C69.9558 30.178 70.2344 30.1082 70.4718 29.959C70.7091 29.8097 70.8927 29.5888 70.9961 29.3282L73.2261 22.3282C73.2282 22.3068 73.2346 22.286 73.2449 22.2671C73.2552 22.2482 73.2692 22.2316 73.2861 22.2182V22.1982C73.9323 20.9509 74.6922 19.7659 75.5561 18.6582C77.0761 16.6582 78.6361 15.4882 79.8461 15.4882C80.0961 15.4882 80.2161 15.4882 80.2761 15.5782C80.8161 16.1282 80.4561 17.9282 79.9361 20.2182L79.8461 20.5982C78.7361 24.8882 78.0561 28.8382 81.8461 30.1182C82.2866 30.2537 82.7452 30.3211 83.2061 30.3182C84.3474 30.2396 85.46 29.9253 86.4737 29.3952C87.4875 28.8651 88.3804 28.1307 89.0961 27.2382L89.2461 27.0782L89.3561 27.2682C90.0492 28.4914 91.0946 29.4776 92.3561 30.0982C93.7871 30.7116 95.3425 30.9788 96.8961 30.8782C97.9961 30.7982 100.756 30.1082 100.756 30.1082ZM90.5961 23.7682H90.4361V23.6082C90.3228 22.3155 90.5042 21.0139 90.9667 19.8014C91.4292 18.5889 92.1607 17.4972 93.1061 16.6082C94.9361 15.2082 95.6361 15.7782 95.9761 16.0582C96.8461 16.8582 96.4161 18.8182 95.7661 19.9182C95.25 20.9079 94.5169 21.7682 93.6217 22.4349C92.7265 23.1015 91.6922 23.5573 90.5961 23.7682Z" fill="black"/>
<path d="M49.4458 37.5483C48.1472 38.3021 46.6307 38.5913 45.1458 38.3683C42.7958 38.1783 41.4258 37.9683 39.5158 36.3683C35.8592 33.2643 32.607 29.7132 29.8358 25.7983C27.6858 22.5448 24.6052 20.0148 20.9958 18.5383L20.6458 18.4783L20.9158 18.2583C22.5472 17.0067 24.2953 15.915 26.1358 14.9983L29.6158 13.1483C34.5258 10.5983 39.8958 7.5783 42.1758 1.9183C42.2909 1.6328 42.2909 1.3138 42.1758 1.0283C42.0891 0.896204 41.9722 0.78655 41.8349 0.708329C41.6976 0.630108 41.5437 0.585547 41.3858 0.5783C41.0168 0.529483 40.6419 0.600266 40.3162 0.780254C39.9904 0.960243 39.7309 1.23995 39.5758 1.5783C37.4758 6.8083 32.0858 9.5783 26.8658 12.3383L26.7258 12.4083C25.0258 13.2583 22.3358 14.7383 20.4158 15.9583L20.1458 16.1283L20.2158 15.2283C20.8858 10.8383 21.8558 7.9083 23.2758 6.0083C24.6958 4.1083 26.7958 2.9983 29.9958 2.6683C30.279 2.66408 30.552 2.56228 30.7688 2.3801C30.9856 2.19791 31.1329 1.9465 31.1858 1.6683C31.1858 1.1583 30.7658 0.6683 30.1058 0.5583C22.7358 -0.7817 15.2958 0.3183 9.70582 3.5583C7.13827 4.96495 4.93665 6.95448 3.27799 9.36691C1.61934 11.7793 0.549947 14.5473 0.155816 17.4483C-0.404184 21.6883 0.555816 24.9983 2.86582 26.8683C3.7017 27.5019 4.65681 27.9605 5.674 28.2165C6.69118 28.4725 7.74956 28.5208 8.78582 28.3583C8.97703 28.3488 9.16432 28.3004 9.33624 28.2162C9.50816 28.132 9.66113 28.0136 9.78582 27.8683C9.86598 27.7777 9.92612 27.6712 9.96231 27.5557C9.99849 27.4403 10.0099 27.3185 9.99582 27.1983C9.91295 26.8834 9.7149 26.611 9.44084 26.4351C9.16677 26.2591 8.83667 26.1925 8.51582 26.2483C7.88211 26.3572 7.23308 26.3391 6.60646 26.1949C5.97984 26.0506 5.38815 25.7833 4.86582 25.4083C3.15582 24.0583 2.44582 21.2483 2.92582 17.6783C3.24335 15.0848 4.17822 12.6052 5.65198 10.4477C7.12575 8.29009 9.09543 6.5174 11.3958 5.2783C15.0947 3.22771 19.2566 2.15712 23.4858 2.1683H24.0458L23.5658 2.4683C19.7058 4.8683 18.3158 9.4683 17.3358 16.2183C17.2658 16.7183 17.1458 17.4983 17.0258 18.3083C16.8258 19.5483 16.5758 21.5383 16.5758 21.5383V21.6083C15.2358 29.8683 13.9458 33.6083 9.90582 34.0283C9.71373 34.0431 9.52647 34.0958 9.35484 34.1833C9.18321 34.2709 9.03061 34.3915 8.90582 34.5383C8.82447 34.634 8.76453 34.7459 8.73003 34.8666C8.69554 34.9874 8.68728 35.1141 8.70582 35.2383C8.79724 35.5561 9.00637 35.8272 9.29062 35.9963C9.57488 36.1653 9.91288 36.2197 10.2358 36.1483C16.7258 35.4983 18.0458 29.8783 19.4458 20.7083C19.4458 20.6283 19.4458 20.4483 19.4458 20.4483L19.8358 20.5083C23.345 22.3786 26.345 25.0766 28.5758 28.3683C31.089 31.7845 34.0032 34.8867 37.2558 37.6083C39.3699 39.3924 42.0044 40.4447 44.7658 40.6083C46.9409 40.7765 49.1152 40.2739 50.9958 39.1683C51.5558 38.8183 51.8458 38.4883 51.8958 38.1683C51.9042 38.0429 51.8852 37.9172 51.8404 37.7998C51.7955 37.6824 51.7257 37.5761 51.6358 37.4883C50.8458 36.6383 49.8858 37.2483 49.4258 37.5483" fill="black"/>
<path d="M55.7164 35.2079C55.8584 35.0716 56.0293 34.9691 56.2164 34.9079C56.5491 34.879 56.8837 34.879 57.2164 34.9079C57.5508 34.8974 57.8856 34.9175 58.2164 34.9679C58.4586 35.0193 58.6936 35.0999 58.9164 35.2079C59.4742 35.5197 59.9522 35.9564 60.3131 36.4838C60.674 37.0112 60.9078 37.615 60.9964 38.2479C61.036 38.4127 61.0661 38.5796 61.0864 38.7479C61.096 38.8911 61.096 39.0347 61.0864 39.1779C61.0852 39.3061 61.0684 39.4337 61.0364 39.5579L60.9564 39.8679C60.9237 39.9658 60.88 40.0597 60.8264 40.1479L60.6864 40.3679C60.6407 40.4373 60.587 40.5011 60.5264 40.5579L60.3764 40.7079L60.2264 40.8479L60.0964 40.9379C59.864 41.1616 59.6055 41.3563 59.3264 41.5179C59.0446 41.6592 58.7499 41.773 58.4464 41.8579C57.7947 42.0366 57.1221 42.1274 56.4464 42.1279C55.7264 42.1279 55.3264 42.0779 55.2364 41.9079C55.1517 40.8129 55.1517 39.7129 55.2364 38.6179L55.3064 35.5279L55.7164 35.2079ZM58.7164 36.6279C58.5635 36.5065 58.3954 36.4057 58.2164 36.3279C58.0114 36.2712 57.7988 36.2476 57.5864 36.2579C57.1464 36.2579 56.9164 36.3079 56.8864 36.3979C56.8564 36.4879 56.8064 37.0279 56.7164 38.0679C56.6264 39.1079 56.5564 39.8779 56.5264 40.3579C56.5264 40.4879 56.5264 40.5679 56.6064 40.6079C56.7308 40.6568 56.8627 40.6839 56.9964 40.6879C57.4558 40.6938 57.9126 40.6194 58.3464 40.4679C58.6043 40.4028 58.8529 40.3053 59.0864 40.1779C59.2361 40.0718 59.3537 39.9264 59.4264 39.7579C59.6985 39.2488 59.7664 38.6553 59.6164 38.0979C59.5114 37.522 59.2069 37.0016 58.7564 36.6279H58.7164Z" fill="black" stroke="black" stroke-width="0.27" stroke-miterlimit="10"/>
<path d="M66.7563 35.3482C66.8542 35.1907 66.9795 35.0518 67.1263 34.9382C67.2742 34.8741 67.4355 34.8466 67.5963 34.8582C67.81 34.8412 68.0244 34.8827 68.2163 34.9782C68.2821 35.023 68.3345 35.0848 68.3679 35.157C68.4014 35.2292 68.4146 35.3091 68.4063 35.3882C68.4109 35.491 68.4419 35.5909 68.4963 35.6782C68.5563 35.7882 68.6863 36.0582 68.8663 36.4782C69.0463 36.8982 69.2463 37.4782 69.4563 38.1282C69.6663 38.7782 69.8263 39.2582 70.0163 39.7182C70.2063 40.1782 70.3363 40.4982 70.4263 40.7182C70.5163 40.9382 70.5963 41.0682 70.6563 41.2082C70.7012 41.3055 70.7251 41.4111 70.7263 41.5182C70.7025 41.6115 70.6618 41.6996 70.6063 41.7782C70.5452 41.8784 70.4603 41.9619 70.3591 42.0212C70.2579 42.0806 70.1435 42.1139 70.0263 42.1182C69.9664 42.1337 69.9039 42.1354 69.8433 42.1233C69.7827 42.1112 69.7256 42.0855 69.6763 42.0482C69.5188 41.8421 69.3877 41.617 69.2863 41.3782C69.1012 41.0691 68.9694 40.731 68.8963 40.3782C68.902 40.2806 68.8698 40.1846 68.8065 40.1101C68.7431 40.0356 68.6535 39.9884 68.5563 39.9782C68.0662 39.9083 67.57 39.8915 67.0763 39.9282C66.6414 39.9368 66.2074 39.9702 65.7763 40.0282C65.5583 40.0656 65.3526 40.1548 65.1763 40.2882C64.977 40.4877 64.8054 40.713 64.6663 40.9582C64.4596 41.3526 64.1816 41.7053 63.8463 41.9982C63.7622 42.0807 63.6491 42.1269 63.5313 42.1269C63.4135 42.1269 63.3004 42.0807 63.2163 41.9982C63.1396 41.923 63.0886 41.8254 63.0706 41.7194C63.0527 41.6135 63.0687 41.5046 63.1163 41.4082C63.3 40.9487 63.5313 40.5097 63.8063 40.0982L64.3363 39.2182C64.4363 39.0282 64.6663 38.6582 65.0163 38.0982C65.3663 37.5382 65.6363 37.0982 65.8063 36.7482C65.8921 36.5893 65.9926 36.4386 66.1063 36.2982C66.1779 36.2133 66.2584 36.1362 66.3463 36.0682C66.3676 36.0553 66.3858 36.0379 66.3996 36.0171C66.4135 35.9964 66.4226 35.9729 66.4263 35.9482C66.4971 35.7291 66.6091 35.5254 66.7563 35.3482ZM67.9263 38.3482C67.8983 38.1303 67.848 37.9159 67.7763 37.7082C67.7103 37.5029 67.6301 37.3024 67.5363 37.1082C67.4563 36.9582 67.4063 36.8782 67.3863 36.8782C67.3663 36.8782 67.2663 36.9382 67.1463 37.0782C67.0376 37.2024 66.9405 37.3363 66.8563 37.4782L66.3963 38.2282C66.1963 38.5482 66.1363 38.7282 66.2063 38.7982C66.5366 38.8619 66.876 38.8619 67.2063 38.7982H67.9863L67.9263 38.3482Z" fill="black" stroke="black" stroke-width="0.27" stroke-miterlimit="10"/>
<path d="M73.8363 34.9979C73.9063 34.8979 74.0863 34.8579 74.3663 34.8579C74.6463 34.8579 74.8263 34.8579 74.8963 34.9879C74.9728 36.1266 74.9728 37.2692 74.8963 38.4079C74.9348 39.5377 74.8746 40.6686 74.7163 41.7879C74.6766 41.8789 74.6107 41.9561 74.527 42.0095C74.4433 42.0629 74.3456 42.0902 74.2463 42.0879C74.1935 42.0759 74.1439 42.0527 74.1008 42.0199C74.0576 41.9872 74.022 41.9456 73.9963 41.8979C73.8651 40.7495 73.8116 39.5935 73.8363 38.4379C73.7525 37.2928 73.7525 36.143 73.8363 34.9979Z" fill="black" stroke="black" stroke-width="0.27" stroke-miterlimit="10"/>
<path d="M78.496 34.8882C78.5372 34.8148 78.5965 34.7533 78.6683 34.7095C78.7401 34.6657 78.822 34.6412 78.9061 34.6382C79.1167 34.6664 79.3128 34.761 79.466 34.9082L79.846 35.1782L79.696 37.0882C79.5959 38.0055 79.5959 38.9309 79.696 39.8482C79.736 40.1629 79.8132 40.4717 79.926 40.7682C80.5014 40.8577 81.0845 40.8879 81.666 40.8582H83.316V41.2682C83.316 41.5582 83.3161 41.7382 83.1161 41.8082C82.3704 41.9662 81.6065 42.0201 80.846 41.9682C79.936 41.9682 79.356 41.9682 79.096 41.9682C78.9127 41.9749 78.7327 41.9184 78.586 41.8082C78.2864 40.6979 78.1715 39.5458 78.246 38.3982C78.1351 37.2224 78.2196 36.0364 78.496 34.8882Z" fill="black" stroke="black" stroke-width="0.27" stroke-miterlimit="10"/>
<path d="M84.5361 35.3479C84.5361 35.2079 84.6461 35.0579 84.8661 34.8879C84.9927 34.7659 85.1472 34.6767 85.3161 34.6279C85.9931 35.0996 86.5963 35.6692 87.1061 36.3179L87.7361 36.9979L88.1761 36.6879L88.8761 36.1479C89.493 35.5501 90.2107 35.066 90.9961 34.7179C91.3661 34.6479 91.5561 34.8379 91.5661 35.2779C91.5698 35.3582 91.5575 35.4384 91.53 35.5139C91.5026 35.5894 91.4605 35.6587 91.4061 35.7179C91.123 35.9631 90.8222 36.187 90.5061 36.3879C89.9715 36.7506 89.4666 37.1552 88.9961 37.5979L88.5161 38.0679L88.5861 39.8879C88.5861 40.6779 88.5861 41.1879 88.5861 41.4079C88.5861 41.5841 88.5301 41.7557 88.4261 41.8979C88.3534 41.9682 88.2671 42.0231 88.1726 42.0592C88.0781 42.0952 87.9772 42.1118 87.8761 42.1079C87.7779 42.1127 87.6798 42.0964 87.5884 42.0602C87.497 42.024 87.4144 41.9687 87.3461 41.8979C87.1834 41.5914 87.1171 41.2428 87.1561 40.8979C87.1561 40.3679 87.1561 39.7979 87.0861 39.1779C87.0853 38.7043 86.9612 38.2391 86.7261 37.8279C86.5015 37.5353 86.2577 37.258 85.9961 36.9979L84.9961 35.9979C84.6761 35.6479 84.5361 35.4379 84.5361 35.3479Z" fill="black" stroke="black" stroke-width="0.27" stroke-miterlimit="10"/>
</svg>
