<svg data-v-58b50170="" data-v-d3f3af2a="" version="1.1" xmlns="http://www.w3.org/2000/svg" xmlns:xlink="http://www.w3.org/1999/xlink" x="0px" y="0px" viewBox="0 0 528.8 111.7" enable-background="new 0 0 528.8 111.7" xml:space="preserve" class="" style="max-width: 150px; width: 100%;"><style>.letter-fill{fill:#2b2620}.circle-fill{fill:#cf492f}</style><title data-v-58b50170="">Les Commis - Retour à la page d'accueil</title><circle class="circle-fill" cx="260.3" cy="55.8" r="55.8" data-v-58b50170=""></circle><path class="letter-fill" d="M0,25.8c0-0.5,0.2-0.9,0.5-1.2c0.3-0.3,0.8-0.5,1.3-0.5h10.8c0.5,0,0.9,0.2,1.2,0.5c0.3,0.3,0.5,0.8,0.5,1.2
	v48.4h21.6c0.9,0,1.7,0.8,1.7,1.7c0,0,0,0,0,0v9.9c0,0.5-0.2,0.9-0.5,1.2c-0.3,0.3-0.8,0.5-1.2,0.5H1.8c-0.9,0-1.7-0.7-1.7-1.7
	c0,0,0,0,0-0.1L0,25.8z" data-v-58b50170=""></path><path class="letter-fill" d="M46.3,25.8c0-0.5,0.2-0.9,0.5-1.2c0.3-0.3,0.8-0.5,1.2-0.5h37.5c0.5,0,0.9,0.2,1.2,0.5
	c0.3,0.3,0.5,0.8,0.5,1.2v9.9c0,0.9-0.7,1.7-1.7,1.7c0,0,0,0-0.1,0H60.5v11.2h20.7c0.5,0,0.9,0.2,1.2,0.5c0.3,0.3,0.5,0.8,0.5,1.2
	v9.9c0,0.9-0.8,1.7-1.7,1.7c0,0,0,0,0,0H60.5v12.2h25.1c0.5,0,0.9,0.2,1.2,0.5c0.3,0.3,0.5,0.8,0.5,1.2v9.9c0,0.9-0.7,1.7-1.7,1.7
	c0,0,0,0-0.1,0H48c-0.9,0-1.7-0.8-1.7-1.7c0,0,0,0,0,0V25.8z" data-v-58b50170=""></path><path class="letter-fill" d="M96.3,81.5c-0.4-0.3-0.7-0.7-0.9-1.1c0-0.5,0.1-1,0.4-1.4l4.3-7.5c0.3-0.6,0.9-0.9,1.6-0.9
	c0.5,0,1.1,0.1,1.5,0.4c0.1,0.1,0.5,0.3,1.3,0.9s1.8,1.1,3,1.7c1.3,0.7,2.6,1.2,4,1.7c1.4,0.5,3,0.8,4.5,0.8
	c1.6,0.1,3.2-0.5,4.5-1.5c1.1-1,1.8-2.4,1.8-3.9c0-2-0.9-3.8-2.4-5.1c-2.1-1.8-4.4-3.1-7-4c-2.1-0.8-4.1-1.8-6-2.9
	c-2.1-1.1-4-2.5-5.7-4.2c-1.7-1.6-3.2-3.5-4.2-5.7c-1.1-2.3-1.7-4.8-1.6-7.3c0-2.3,0.5-4.5,1.3-6.6c0.9-2.2,2.2-4.2,3.9-5.8
	c1.9-1.8,4.1-3.2,6.5-4.1c2.9-1.1,6-1.6,9.2-1.5c2.2,0,4.4,0.2,6.6,0.8c1.9,0.5,3.8,1.1,5.6,1.9c1.5,0.6,3,1.4,4.4,2.2
	c1.2,0.8,2.2,1.4,2.9,1.9c0.5,0.3,0.9,0.8,0.8,1.4c0,0.5-0.1,1-0.3,1.4l-4.6,7c-0.4,0.5-0.9,0.9-1.4,1.2c-0.5,0.3-1.1,0.3-1.6,0
	l-1.6-1c-0.9-0.6-1.9-1.2-3.1-1.8c-1.3-0.7-2.6-1.3-4-1.8c-1.4-0.5-2.8-0.8-4.3-0.8c-1.5,0-2.9,0.4-4.1,1.4c-1,0.8-1.6,2-1.6,3.2
	c0,1.8,0.8,3.4,2.2,4.6c2.3,1.8,4.9,3.2,7.7,4.2c1.8,0.7,3.7,1.6,5.9,2.7c2.2,1.1,4.2,2.5,6,4.1c1.9,1.7,3.4,3.6,4.6,5.8
	c1.3,2.5,1.9,5.2,1.9,8c0,2.4-0.5,4.7-1.4,6.9c-1,2.3-2.4,4.3-4.2,6c-2,1.8-4.3,3.3-6.8,4.3c-2.9,1.1-5.9,1.7-9,1.6
	c-2.7,0-5.3-0.2-7.9-0.8c-2-0.5-4-1.1-5.9-1.9c-1.5-0.6-2.8-1.4-4.1-2.3C97.8,82.9,97,82.2,96.3,81.5z" data-v-58b50170=""></path><path class="letter-fill" d="M169.5,55.9c0-4.4,0.9-8.7,2.6-12.8c3.3-7.8,9.5-14.1,17.4-17.4c4-1.7,8.4-2.6,12.8-2.6
	c4.1-0.1,8.2,0.6,12.1,2.1c3.7,1.5,7,3.6,9.9,6.3c0.7,0.5,0.9,1.4,0.5,2.2c-0.1,0.1-0.2,0.3-0.4,0.4l-7.1,7.3
	c-0.3,0.3-0.7,0.5-1.1,0.4c-0.4,0-0.8-0.2-1.1-0.4c-1.7-1.5-3.6-2.7-5.7-3.4c-2.1-0.8-4.3-1.2-6.5-1.2c-2.4,0-4.8,0.5-7.1,1.5
	c-4.3,2-7.7,5.6-9.4,10c-0.9,2.3-1.3,4.7-1.3,7.2c0,2.4,0.4,4.9,1.4,7.1c0.9,2.2,2.1,4.1,3.7,5.8c1.6,1.7,3.5,3.1,5.7,4
	c2.2,1,4.7,1.5,7.1,1.4c2.2,0,4.4-0.4,6.4-1.1c2.1-0.7,4-1.8,5.7-3.2c0.3-0.3,0.7-0.5,1.2-0.4c0.4,0,0.9,0.2,1.2,0.5l7.1,7.5
	c0.3,0.3,0.5,0.8,0.4,1.2c0,0.5-0.2,0.9-0.5,1.2c-2.9,2.9-6.4,5.2-10.3,6.7c-3.8,1.4-7.7,2.1-11.7,2.1c-8.7,0-17-3.4-23.2-9.5
	c-3-3-5.3-6.5-7-10.3C170.3,64.7,169.4,60.3,169.5,55.9z" data-v-58b50170=""></path><path class="letter-fill" d="M309.4,24.7c0.1-0.4,0.3-0.8,0.6-1c0.3-0.2,0.6-0.4,1-0.4h1.5c0.3,0,0.6,0.1,0.9,0.2
	c0.3,0.1,0.6,0.4,0.7,0.7l21,39.2h0.2l21-39.2c0.1-0.3,0.4-0.6,0.7-0.7c0.3-0.1,0.6-0.2,0.9-0.2h1.5c0.4,0,0.7,0.2,1,0.4
	c0.3,0.2,0.5,0.6,0.6,1L371,85.6c0.1,0.5,0,1.1-0.4,1.4c-0.4,0.4-0.9,0.6-1.4,0.5h-10.5c-0.4,0-0.8-0.2-1.1-0.4
	c-0.3-0.3-0.5-0.6-0.6-1l-4.1-28h-0.2l-15.2,29.4c-0.1,0.3-0.4,0.6-0.7,0.7c-0.3,0.2-0.6,0.3-0.9,0.3h-1.6c-0.3,0-0.6-0.1-0.9-0.3
	c-0.3-0.2-0.5-0.4-0.6-0.7l-15.3-29.4h-0.2l-4,28c-0.1,0.4-0.3,0.7-0.5,1c-0.3,0.3-0.7,0.5-1.2,0.4h-10.7c-0.5,0-1-0.2-1.4-0.5
	c-0.4-0.4-0.5-0.9-0.4-1.4L309.4,24.7z" data-v-58b50170=""></path><path class="letter-fill" d="M390,24.7c0.1-0.4,0.3-0.8,0.6-1c0.3-0.3,0.7-0.4,1-0.4h1.5c0.3,0,0.6,0.1,0.9,0.2c0.3,0.1,0.5,0.4,0.7,0.7
	l21,39.2h0.2l21.1-39.2c0.1-0.3,0.4-0.6,0.7-0.7c0.3-0.1,0.6-0.2,0.9-0.2h1.5c0.4,0,0.7,0.2,1,0.4c0.3,0.2,0.5,0.6,0.6,1l10.3,61
	c0.1,0.5,0,1.1-0.4,1.4c-0.4,0.4-0.9,0.6-1.4,0.5h-10.7c-0.4,0-0.8-0.2-1.1-0.4c-0.3-0.3-0.5-0.6-0.6-1l-4.1-28h-0.2l-15.2,29.4
	c-0.1,0.3-0.4,0.6-0.7,0.7c-0.3,0.2-0.6,0.3-0.9,0.3h-1.6c-0.3,0-0.6-0.1-0.9-0.3c-0.3-0.2-0.5-0.4-0.6-0.7l-15.3-29.4h-0.2l-4,28
	c-0.1,0.4-0.3,0.7-0.5,1c-0.3,0.3-0.7,0.5-1.2,0.4h-10.7c-0.5,0-1-0.2-1.4-0.5c-0.4-0.4-0.5-0.9-0.4-1.4L390,24.7z" data-v-58b50170=""></path><path class="letter-fill" d="M460.3,25.8c0-0.9,0.7-1.7,1.6-1.8c0,0,0.1,0,0.1,0h10.9c0.5,0,0.9,0.2,1.2,0.5c0.3,0.3,0.5,0.8,0.5,1.2v60
	c0,0.9-0.7,1.7-1.7,1.7c0,0,0,0-0.1,0H462c-0.5,0-0.9-0.2-1.2-0.5c-0.3-0.3-0.5-0.8-0.5-1.2V25.8z" data-v-58b50170=""></path><path class="letter-fill" d="M487.1,81.5c-0.4-0.3-0.7-0.7-0.9-1.1c-0.1-0.3,0-0.7,0.4-1.4l4.3-7.5c0.3-0.6,0.9-0.9,1.6-0.9
	c0.5,0,1.1,0.1,1.5,0.4c0.1,0.1,0.5,0.3,1.3,0.9s1.8,1.1,3,1.7c1.3,0.6,2.6,1.2,4,1.7c1.4,0.5,3,0.8,4.5,0.8
	c1.6,0.1,3.2-0.5,4.5-1.5c1.1-1,1.8-2.4,1.8-3.9c0-2-0.9-3.8-2.4-5.1c-2.1-1.8-4.4-3.1-7-4c-2.1-0.8-4.1-1.8-6-2.9
	c-2.1-1.1-4-2.5-5.7-4.2c-1.7-1.6-3.1-3.5-4.2-5.7c-1.1-2.3-1.7-4.8-1.6-7.3c0-2.3,0.5-4.5,1.3-6.6c0.9-2.2,2.2-4.2,3.9-5.8
	c1.9-1.8,4.1-3.2,6.5-4.1c2.9-1.1,6-1.6,9.2-1.5c2.2,0,4.5,0.2,6.6,0.8c1.9,0.5,3.8,1.1,5.6,1.9c1.5,0.6,3,1.4,4.4,2.2
	c1.2,0.8,2.2,1.4,2.9,1.9c0.5,0.3,0.8,0.9,0.8,1.4c0,0.5-0.1,1-0.3,1.4l-4.6,7c-0.4,0.5-0.9,0.9-1.4,1.2c-0.5,0.3-1.1,0.3-1.6,0
	l-1.6-1c-0.9-0.6-1.9-1.2-3.1-1.8c-1.3-0.7-2.6-1.3-4-1.8c-1.4-0.5-2.8-0.8-4.3-0.8c-1.5-0.1-2.9,0.4-4.1,1.4c-1,0.8-1.6,2-1.6,3.2
	c0,1.8,0.8,3.4,2.2,4.6c2.3,1.8,4.9,3.2,7.7,4.2c1.8,0.7,3.7,1.6,5.8,2.7c2.2,1.1,4.2,2.5,6,4.1c1.9,1.7,3.4,3.6,4.6,5.8
	c1.3,2.5,1.9,5.2,1.8,8c0,2.4-0.5,4.7-1.5,6.9c-1,2.3-2.4,4.3-4.2,6c-2,1.8-4.3,3.3-6.8,4.3c-2.9,1.1-5.9,1.7-9,1.6
	c-2.6,0-5.3-0.2-7.9-0.8c-2-0.5-4-1.1-5.9-1.9c-1.4-0.6-2.8-1.4-4.1-2.3C488.6,82.9,487.8,82.2,487.1,81.5z" data-v-58b50170=""></path><g data-v-58b50170=""><path class="letter-fill" d="M270,47.2h21.9c-0.3-1-0.6-2-1-3H270c0-0.2-0.1-0.5-0.1-0.7c0,0,0,0,0-0.1l16.8-7c-0.6-0.8-1.3-1.6-2-2.4
		l-16,6.6c-0.1-0.2-0.3-0.4-0.4-0.7l10.9-10.9c-0.8-0.6-1.7-1.1-2.6-1.7l-10.4,10.4c-0.2-0.1-0.3-0.2-0.5-0.3l-0.2-0.1l5.2-12.6
		c-1-0.3-2-0.6-3-0.8l-5.1,12.1l-0.8-0.2V23.2c-0.5,0-1,0-1.6,0c-0.5,0-1,0-1.4,0V36l-0.7,0.1h-0.1l-5-12.1c-1,0.2-2,0.5-2.9,0.8
		l5.2,12.5c-0.2,0.1-0.4,0.3-0.7,0.4l-10.4-10.4c-0.9,0.5-1.8,1-2.6,1.6l10.9,10.9c-0.2,0.2-0.3,0.4-0.4,0.7l-16-6.6
		c-0.7,0.8-1.4,1.6-2,2.5l16.8,7c0,0.1,0,0.2-0.1,0.3c0,0.2-0.1,0.3-0.1,0.5h-20.9c-0.4,1-0.7,2-1,3h21.9c0,0.2,0.1,0.5,0.1,0.7
		c0,0,0,0,0,0.1l-12.5,5.2c-3.4-0.6-7-0.7-10.5-0.2c-0.1,1-0.1,2-0.1,3c0,0,0,0.1,0,0.1c12.4-1.9,24.6,3.8,31.2,14.3
		c-1.2,2.3-2.2,4.7-2.9,7.2c-3.8-9.6-13.1-16-23.5-16c-1.4,0-2.8,0.1-4.2,0.4c0.2,1,0.4,2,0.7,3c1.2-0.2,2.3-0.3,3.5-0.3
		c12.3,0,22.2,10,22.2,22.2l0,0c0,0.5,0,0.9,0,1.3c1,0.2,2,0.3,3.1,0.4c0-0.6-0.1-1.2-0.1-1.8c0-17.2,14-31.2,31.2-31.2
		c1.4,0,2.8,0.1,4.2,0.3c0-1-0.1-2.1-0.2-3.1c-1.4-0.2-2.7-0.3-4.1-0.3c-2.2,0-4.4,0.2-6.4,0.6l-12.5-5.2c0-0.1,0.1-0.2,0.1-0.3
		C269.9,47.5,269.9,47.3,270,47.2z M243.2,54.3l8.8-3.7c0.1,0.2,0.3,0.4,0.4,0.7l-4.8,4.8C246.2,55.4,244.7,54.8,243.2,54.3z
		 M252.9,59.4c-0.8-0.6-1.7-1.2-2.6-1.8l4.2-4.2l0.5,0.3l0.2,0.1L252.9,59.4z M258.7,65c-1.1-1.3-2.2-2.5-3.4-3.6L258,55l0.8,0.2V65
		z M260.3,52.4c-3.7,0-6.7-3-6.7-6.7c0-3.7,3-6.7,6.7-6.7c3.7,0,6.7,3,6.7,6.7C267.1,49.3,264.1,52.4,260.3,52.4
		C260.3,52.4,260.3,52.4,260.3,52.4z M261.7,65.8V55.2l0.7-0.1h0.1l2.8,6.8C264,63.1,262.8,64.4,261.7,65.8z M267.7,59.8l-2.4-5.9
		c0.2-0.1,0.4-0.3,0.7-0.4l4.4,4.4C269.4,58.5,268.6,59.1,267.7,59.8z M277.6,54.4c-1.6,0.5-3.1,1.2-4.5,2l-5-5
		c0.2-0.2,0.3-0.4,0.4-0.7L277.6,54.4z" data-v-58b50170=""></path><path class="letter-fill" d="M289.4,70.8c-0.2,0-0.4,0-0.6,0c-8.6,0-15.6,6.8-16,15.3c1.1-0.5,2.2-1,3.2-1.5c1-5.8,5.8-10.2,11.6-10.7
		C288.3,72.9,288.9,71.9,289.4,70.8z" data-v-58b50170=""></path><path class="letter-fill" d="M288.8,61.4c-13.9,0-25.3,11.3-25.3,25.3c0,0.6,0,1.2,0.1,1.7c1-0.1,2-0.3,3-0.4c0-0.4,0-0.8,0-1.3
		c0-12.3,9.9-22.2,22.2-22.2c1,0,2,0.1,3.1,0.2c0.3-1,0.5-2,0.7-3C291.3,61.5,290,61.4,288.8,61.4z" data-v-58b50170=""></path><path class="letter-fill" d="M232.3,70.8c-0.4,0-0.8,0-1.1,0c0.1,0.2,0.2,0.3,0.3,0.5c0,0.1,0.1,0.1,0.1,0.2c0.4,0.8,0.9,1.5,1.4,2.3
		c6.2,0.3,11.3,4.9,12.2,11c1,0.5,2.1,1,3.2,1.5C248,77.7,241,70.8,232.3,70.8z" data-v-58b50170=""></path></g></svg>