<svg data-v-6d5a79ad="" class="icon-LogoPotagerHorizontal potager-logo block text-british-racing" viewBox="0 0 430.7 80.9" xmlns="http://www.w3.org/2000/svg" style="fill: currentcolor; height: 1em; max-height: 1em; min-height: 1em; width: auto; display: inline-block; font-size: 2rem;"><path d="M362.6 49.7c-.5-.1-1 0-1.5.3-.8.5-1.7.8-2.6 1s-1.9.3-2.9.3c-1.5 0-2.9-.2-4.2-.7-1.3-.5-2.4-1.2-3.4-2.1-1-1-1.7-2.1-2.3-3.5-.5-1.4-.8-3-.8-4.8 0-1.6.3-3.1.8-4.5.5-1.3 1.2-2.5 2.2-3.5.9-1 2.1-1.7 3.4-2.3 1.3-.5 2.8-.8 4.4-.8 1 0 2 .1 2.9.4s1.8.6 2.6 1c.5.3 1 .4 1.5.3.5 0 .9-.3 1.2-.8.5-.5.6-1.1.5-1.8-.1-.7-.5-1.1-1.1-1.5-1.1-.6-2.3-1.1-3.6-1.5-1.3-.3-2.6-.5-4-.5-2.2 0-4.2.4-6.1 1.1-1.9.8-3.5 1.8-4.9 3.2-1.4 1.4-2.5 3-3.2 4.8-.8 1.9-1.2 3.9-1.2 6.1 0 2.5.4 4.6 1.2 6.6.8 1.9 2 3.5 3.4 4.8s3 2.3 4.9 3c1.8.7 3.8 1 5.9 1 .9 0 1.8-.1 2.7-.2.9-.2 1.8-.4 2.6-.7.9-.3 1.6-.7 2.4-1.1.6-.3 1-.7 1.1-1.4.1-.6-.1-1.2-.5-1.8-.5 0-.9-.3-1.4-.4zm10.5-24.5c-.7 0-1.2.2-1.7.6-.4.4-.6.9-.6 1.6v25.7c0 .6.2 1.2.6 1.6s.9.6 1.6.6c.6 0 1.1-.2 1.6-.6.4-.4.7-.9.7-1.6V27.4c0-.6-.2-1.2-.7-1.6-.4-.4-.9-.6-1.5-.6zm28.7 0h-19.5c-.6 0-1.1.2-1.5.6s-.6.9-.6 1.5.2 1.1.6 1.5.9.6 1.5.6h7.4v23.7c0 .6.2 1.2.6 1.6s1 .6 1.7.6 1.2-.2 1.7-.6c.4-.4.7-.9.7-1.6V29.3h7.4c.6 0 1.2-.2 1.6-.6s.6-.9.6-1.5-.2-1.1-.6-1.5c-.5-.3-1-.5-1.6-.5zm28.4.5c-.4-.4-.9-.6-1.5-.6-.7 0-1.3.4-1.8 1.1l-7.6 10.9-8-11c-.5-.7-1.1-1-1.8-1-.5 0-1 .2-1.5.6s-.8.9-.8 1.5c0 .3 0 .5.1.8s.2.6.5.9l9.1 12.2v12c0 .6.2 1.2.6 1.6s.9.6 1.5.6c.5 0 1-.2 1.5-.6.4-.4.6-.9.6-1.6V41.5l9.1-12.9c.1-.2.3-.4.3-.6.1-.2.1-.5.1-.7.2-.6 0-1.1-.4-1.6zm-304.9-.8c2.8 0 5.3.6 7.5 1.9 2.3 1.3 4.1 3.1 5.4 5.4 1.3 2.3 1.9 5 1.9 8 0 3.1-.6 5.8-1.9 8.1-1.3 2.3-3.1 4.1-5.4 5.4-2.3 1.3-4.8 1.9-7.5 1.9-3.8 0-6.8-1.2-9-3.6v13.9h-8.7V25.4h8.3v3.4c2.2-2.6 5.3-3.9 9.4-3.9zm-1.5 23.7c2.2 0 4-.7 5.4-2.2s2.2-3.5 2.2-6-.7-4.5-2.2-6c-1.4-1.5-3.2-2.3-5.4-2.3s-4 .8-5.5 2.3c-1.4 1.5-2.1 3.5-2.1 6s.7 4.5 2.1 6c1.5 1.4 3.3 2.2 5.5 2.2zm36.4 7.1c-3.1 0-6-.6-8.5-1.9s-4.4-3.2-5.8-5.5c-1.4-2.3-2.1-5-2.1-7.9 0-3 .7-5.6 2.1-7.9 1.4-2.3 3.3-4.1 5.8-5.4s5.3-2 8.5-2c3.1 0 6 .7 8.4 2 2.5 1.3 4.4 3.1 5.8 5.4 1.4 2.3 2.1 5 2.1 7.9 0 3-.7 5.6-2.1 7.9-1.4 2.3-3.3 4.2-5.8 5.5-2.5 1.2-5.3 1.9-8.4 1.9zm0-7.1c2.2 0 4-.7 5.4-2.2s2.2-3.5 2.2-6-.7-4.5-2.2-6c-1.4-1.5-3.2-2.3-5.4-2.3s-4 .8-5.5 2.3c-1.4 1.5-2.2 3.5-2.2 6s.7 4.5 2.2 6c1.4 1.4 3.3 2.2 5.5 2.2zm41.4 5.2c-.9.6-1.9 1.1-3.2 1.4-1.2.3-2.5.4-3.9.4-3.5 0-6.3-.9-8.3-2.7-1.9-1.8-2.9-4.5-2.9-8V32.7h-4.6V26h4.6v-7.3h8.7V26h7.4v6.7H192v12.1c0 1.3.3 2.2.9 2.9.7.7 1.6 1 2.8 1 1.4 0 2.5-.4 3.5-1.1l2.4 6.2zm18-28.9c4.6 0 8.2 1.1 10.6 3.3 2.5 2.2 3.7 5.5 3.7 9.9v17h-8.1v-3.7c-1.6 2.8-4.7 4.2-9.1 4.2-2.3 0-4.3-.4-6-1.2-1.7-.8-2.9-1.8-3.8-3.2-.9-1.4-1.3-2.9-1.3-4.7 0-2.8 1-5 3.1-6.5 2.1-1.6 5.3-2.4 9.7-2.4h6.9c0-1.9-.6-3.3-1.7-4.3s-2.9-1.6-5.2-1.6c-1.6 0-3.2.3-4.7.8s-2.8 1.1-3.9 2l-3.1-6c1.6-1.1 3.6-2 5.8-2.7 2.3-.5 4.7-.9 7.1-.9zm-.7 25c1.5 0 2.8-.3 3.9-1s2-1.7 2.4-3.1v-3.1h-5.9c-3.5 0-5.3 1.2-5.3 3.5 0 1.1.4 2 1.3 2.7.9.6 2.1 1 3.6 1zm52.5-24.5v24.8c0 5.5-1.4 9.5-4.3 12.2-2.8 2.7-7 4-12.5 4-2.9 0-5.6-.4-8.2-1.1s-4.7-1.7-6.4-3.1l3.4-6.2c1.3 1 2.8 1.8 4.8 2.4 1.9.6 3.8.9 5.8.9 3 0 5.2-.7 6.6-2.1 1.4-1.3 2.2-3.4 2.2-6.1v-1.3c-2.3 2.5-5.4 3.7-9.4 3.7-2.7 0-5.2-.6-7.5-1.8-2.3-1.2-4-2.9-5.4-5.1-1.3-2.2-2-4.7-2-7.5s.7-5.4 2-7.5c1.3-2.2 3.1-3.9 5.4-5 2.3-1.2 4.8-1.8 7.5-1.8 4.3 0 7.6 1.4 9.9 4.3v-3.8h8.1v.1zm-16.3 21.3c2.3 0 4.2-.7 5.6-2 1.5-1.4 2.2-3.1 2.2-5.3 0-2.2-.7-3.9-2.2-5.3-1.4-1.4-3.3-2.1-5.6-2.1s-4.2.7-5.7 2.1c-1.5 1.3-2.2 3.1-2.2 5.3 0 2.2.7 4 2.2 5.3 1.5 1.3 3.4 2 5.7 2zm38.6 2c1.6 0 2.9-.2 4.1-.7s2.3-1.2 3.4-2.2l4.6 5c-2.8 3.2-6.9 4.8-12.3 4.8-3.4 0-6.3-.6-8.9-1.9s-4.6-3.2-6-5.5-2.1-5-2.1-7.9.7-5.5 2.1-7.9 3.3-4.2 5.7-5.5c2.4-1.3 5.2-2 8.2-2 2.8 0 5.4.6 7.8 1.8 2.3 1.2 4.2 2.9 5.5 5.2 1.4 2.3 2.1 4.9 2.1 8l-22.1 4.4c.6 1.5 1.6 2.6 2.9 3.3 1.4.8 3 1.1 5 1.1zm-1.3-17.2c-2.2 0-4 .7-5.3 2.1-1.4 1.4-2.1 3.3-2.2 5.8l14.5-2.8c-.4-1.6-1.2-2.8-2.5-3.7-1.2-.9-2.7-1.4-4.5-1.4zm29-2.2c1-1.4 2.4-2.5 4.2-3.3 1.8-.7 3.8-1.1 6.1-1.1v8c-1-.1-1.6-.1-1.9-.1-2.5 0-4.4.7-5.8 2.1s-2.1 3.4-2.1 6.2v14.1h-8.7V25.4h8.3v3.9h-.1zM13.8 65.6v2.8c0 1.2 0 2.3-.1 3.4-.1 1.6-.1 3.3 0 5.1v1.7c0 .5 0 .8-.1 1.5 0 .3-.1.7-.1.7H0V.1h13.5c.1.6.1 2.3.1 3.3v4.7c.1 2.4.1 4.9.1 7.3v.7c0 1.4-.1 2.8-.2 4.2-.1.8-.1 1.6-.1 2.3v.7c-.1.9-.1 1.7 0 2.6 0 .3.1.7.1 1 .1.8.1 1.6.2 2.4 0 1.1.1 2.3.2 3.4.1.9.1 1.8.1 2.7.1 2.5.1 5 0 7.5 0 .5-.1 1.1-.1 1.6 0 .4-.1.8-.1 1.2-.1 1 0 2 0 3v.6c0 1.3.1 2.6.2 3.8 0 .3 0 .6.1.9.1.9 0 1.8 0 2.7 0 .9-.1 1.7 0 2.6-.2 2.1-.2 3.9-.3 6.3zm17.4 2.3v3.9c0 .8-.1 1.7-.1 2.5 0 .5 0 1.1-.1 1.6V79c0 .5 0 .7-.1 1.3v.5H18c-.2-1.2-.4-2.8-.4-3.8 0-1.5-.1-3-.1-4.4-.1-2.6-.2-5.1 0-7.9v-1c0-3.5 0-7.1-.1-10.6v-7.7c0-1.1 0-2.2.1-3.4.1-1.1.1-2.2.1-3.2v-.5c0-1.5-.1-3.1-.1-4.6v-1.6c0-1 .1-2.1 0-2.9 0-1 0-2-.1-2.9 0-1.7-.1-3.3-.1-5.2v-2.6c0-2.5.1-5 .1-7.5V9.6c0-.9.1-1.8.1-2.7V5c0-.8-.1-1.8 0-3.6V0h13.4v7.7c0 1.7.1 3.3.1 5v.6c0 1.5 0 3-.1 4.6-.1 1.3-.2 2.7-.3 4v.6c-.1.9-.1 1.7-.1 2.6 0 .5.1 1 .1 1.5 0 .3.1.7.1 1 0 .7.1 1.3.1 2s.1 1.4.1 2.1c.1 1.8.2 3.6.2 5.5 0 1.8 0 3.7-.1 5.5 0 .9-.1 1.9-.2 2.8-.1.7 0 1.4 0 2.1v.7c0 1 .1 2 .1 3v2.4c0 .8 0 1.7.1 2.5 0 .8.1 1.6.1 2.4v1.9c.1 1.2 0 2.4 0 3.7V66c.1.5.2 1.2.1 1.9zm24.9 12.7v.3H35v-.6c-.1-.3 0-.8 0-1.1v-.4c0-.3 0-.6-.1-.9 0-.4-.1-.8 0-1.2 0-.5 0-1 .1-1.4 0-.6.1-1.1.1-1.7v-2.4c0-.8.1-1.5.1-2.3.1-.8.1-1.6.1-2.3 0-.4 0-.9-.1-1.3 0-.5-.1-1 0-1.6V61c0-.6 0-1.1.1-1.7v-.1c0-.3.1-.4.4-.4.2 0 .4-.1.6-.1s.4-.1.6-.1h.6c1.3 0 2.6-.1 3.9 0 .5 0 1 .1 1.5.1.6.1 1.2.1 1.8.1 1.6 0 3.2 0 4.8-.1h.6c1.8 0 3.5-.1 5.3-.1h.2c.2 0 .3.1.4.3.1.3.1.5.1.8v2.2c0 .7 0 1.5-.1 2.2v.9c0 .7 0 1.3-.1 2 0 .6 0 1.1-.1 1.7V70c0 1.4 0 2.9.1 4.3v.4c0 .4 0 .8.1 1.1 0 .5.1.9.1 1.4v1.2c.1.7.1 1.5 0 2.2zm24.7-20.5v20.8h-21v-9.8c0-1.5.1-3.1.1-4.6 0-1 0-1.9.1-2.9v-2.7c0-.6 0-1.1.1-1.7v-.1c0-.3.1-.4.4-.4h1.2c1 0 2 0 3.1.1.6 0 1.1.1 1.6.1 1.1 0 2.2.1 3.3.1 1 0 1.9-.1 2.8-.1.7-.1 1.5-.1 2.3-.1 1.8 0 3.5-.1 5.3-.1h.7v1.4zm0-6h-1.9c-.8 0-1.5.1-2.3.1-1.2.1-2.3.1-3.5.1-1.5-.1-3.1.1-4.6.3-1.4.1-2.7.3-4.1.3-5.2 0-10.4-.1-15.7-.3H48c-.6 0-1.1 0-1.7-.1-1.1-.1-2.2 0-3.3.1-.3 0-.5 0-.8.1-1.6.1-3.2.2-4.9.1h-1.5c-.5 0-.6-.1-.7-.7-.2-1.1-.2-3.2-.2-4.3v-5.9c0-1.6 0-3.1-.1-4.7 0-1-.1-2-.1-3v-5.8c.1-3.7.1-7.4.2-11.2 0-2.3.1-4.7.2-7V5.4c0-1.2 0-2.4.1-3.7 0-.7.1-1.5.1-1.6h45.3v54h.2z"></path></svg>