<svg xmlns="http://www.w3.org/2000/svg" width="145" height="30" viewBox="0 0 145 30" fill="none"><g clip-path="url(#clip0_5464_26116)"><path d="M0 19.4296H7.91714C8.0874 22.6816 9.88366 24.4779 12.4518 24.4779C14.4637 24.4779 15.874 23.3655 15.874 21.4841C15.874 19.7304 14.5488 18.8309 9.84109 17.588C4.021 16.0471 0.726447 13.7372 0.726447 8.90182C0.726447 3.33712 4.79285 0 11.7253 0C18.6578 0 23.1498 3.68048 23.3655 9.92906H15.6612C15.576 7.19069 14.1657 5.47673 11.7679 5.47673C9.88366 5.47673 8.68899 6.50397 8.68899 8.0874C8.68899 9.92622 10.2299 10.5278 14.807 11.7225C20.8825 13.3059 24.0068 15.7037 24.0068 20.5817C24.0068 26.4444 19.5573 29.9972 12.3666 29.9972C5.17594 29.9972 0.0425653 26.1464 0 19.4296Z" fill="#2b2620"></path><path d="M26.373 18.6577C26.373 11.7678 31.1659 7.49146 37.4145 7.49146C43.1466 7.49146 48.7539 10.8286 48.7539 19.0465C48.7539 19.3473 48.7539 19.6453 48.7113 20.0737H33.9894C34.032 23.0675 35.5303 24.6963 37.755 24.6963C39.4236 24.6963 40.7062 23.7117 41.0921 22.0431H48.5382C47.7266 26.836 43.8305 29.8751 37.8827 29.8751C31.1659 29.8751 26.373 25.5079 26.373 18.6634V18.6577ZM41.007 17.1594C40.9219 13.95 39.3384 12.622 37.5422 12.622C35.4026 12.622 34.0348 14.5062 34.0348 17.1594H41.0098H41.007Z" fill="#2b2620"></path><path d="M50.6045 24.2224C50.6045 19.7701 54.8837 16.992 63.6578 16.9466V15.2354C63.6578 13.5215 62.8888 12.6248 61.3905 12.6248C59.6368 12.6248 58.865 13.8223 58.7373 15.6214H51.4643C51.592 10.9562 55.4427 7.57654 61.819 7.57654C67.8519 7.57654 71.2316 10.6157 71.2316 16.0073V23.4108C71.2316 23.8819 71.5324 24.1373 72.0035 24.1373H73.2435V29.316H68.8763C65.369 29.316 63.8281 27.9454 63.8281 24.6083V23.6662C63.2719 27.3893 61.3451 29.7871 57.0659 29.7871C52.7867 29.7871 50.6045 27.6475 50.6045 24.2252V24.2224ZM60.1902 24.6055C62.4178 24.6055 63.6578 22.9795 63.6578 19.8552V19.5147C60.6612 19.4721 58.0506 20.3263 58.0506 22.6815C58.0506 23.9642 59.0353 24.6083 60.1902 24.6083V24.6055Z" fill="#2b2620"></path><path d="M75.4369 23.5783L85.2354 13.8649H75.6072V8.0874H93.879V13.8195L84.0805 23.4904H94.0067V29.2679H75.4341V23.5755L75.4369 23.5783Z" fill="#2b2620"></path><path d="M96.4189 18.6577C96.4189 11.8984 101.382 7.49146 107.716 7.49146C114.049 7.49146 119.058 11.8984 119.058 18.6577C119.058 25.4171 114.092 29.8694 107.716 29.8694C101.339 29.8694 96.4189 25.4171 96.4189 18.6577ZM107.713 24.4353C109.725 24.4353 111.135 22.6816 111.135 18.6577C111.135 14.6339 109.725 12.9682 107.713 12.9682C105.701 12.9682 104.291 14.7219 104.291 18.6577C104.291 22.5936 105.704 24.4353 107.713 24.4353Z" fill="#2b2620"></path><path d="M122.062 8.0902H130.065L130.022 14.6793C131.092 9.33026 133.915 7.61914 137.295 7.61914C141.918 7.61914 144.313 10.7434 144.313 16.3479V29.2707H136.225V16.7763C136.225 14.2508 135.198 13.269 133.7 13.269C131.475 13.269 130.062 15.5363 130.062 20.8002V29.2735H122.06V8.0902H122.062Z" fill="#2b2620"></path></g><defs><clipPath id="clip0_5464_26116"><rect width="144.313" height="30" fill="#2b2620"></rect></clipPath></defs></svg>